<?xml version="1.0" encoding="utf-8"?>
<!-- Generator: Adobe Illustrator 17.0.0, SVG Export Plug-In . SVG Version: 6.00 Build 0)  -->
<!DOCTYPE svg PUBLIC "-//W3C//DTD SVG 1.1//EN" "http://www.w3.org/Graphics/SVG/1.1/DTD/svg11.dtd">
<svg version="1.1" id="Layer_1" xmlns="http://www.w3.org/2000/svg" xmlns:xlink="http://www.w3.org/1999/xlink" x="0px" y="0px"
	 width="336.667px" height="378px" viewBox="0 0 336.667 378" enable-background="new 0 0 336.667 378" xml:space="preserve">
<g id="background">
	<g>
		<polyline fill="none" stroke="#525252" stroke-miterlimit="10" points="133.524,301.796 59.5,259.155 59.5,173 		"/>
		<polyline fill="none" stroke="#525252" stroke-miterlimit="10" points="297.5,165 297.5,259.155 223.774,301.467 		"/>
		<line fill="none" stroke="#525252" stroke-miterlimit="10" x1="203.503" y1="66.537" x2="250.629" y2="93.89"/>
		<line fill="none" stroke="#525252" stroke-miterlimit="10" x1="97.756" y1="98.131" x2="148.942" y2="67.803"/>
		<polyline fill="none" stroke="#525252" stroke-miterlimit="10" points="122.415,315.205 41.5,268.823 41.5,171 		"/>
		<polyline fill="none" stroke="#525252" stroke-miterlimit="10" points="314.5,156 314.5,268.823 227.181,319.093 		"/>
		<line fill="none" stroke="#525252" stroke-miterlimit="10" x1="230.037" y1="62.605" x2="257.619" y2="78.491"/>
		<line fill="none" stroke="#525252" stroke-miterlimit="10" x1="86.579" y1="85.511" x2="138.432" y2="55.419"/>
	</g>
</g>
<g id="react">
	<g>
		<circle fill="#525252" cx="177.846" cy="337.988" r="7.785"/>
		<path fill="#525252" d="M177.846,355.834c-10.934,0-20.495-1.292-27.648-3.738c-4.645-1.588-8.582-3.696-11.386-6.097
			c-2.98-2.552-4.556-5.322-4.556-8.011c0-5.147,5.654-10.191,15.124-13.492c7.765-2.707,17.875-4.198,28.465-4.198
			c10.393,0,20.369,1.464,28.089,4.122c4.514,1.554,8.324,3.563,11.017,5.811c2.933,2.447,4.484,5.13,4.484,7.758
			c0,5.35-6.321,10.768-16.497,14.14C197.726,354.518,188.104,355.834,177.846,355.834z M177.846,324.022
			c-10.037,0-19.965,1.454-27.239,3.99c-6.285,2.191-12.626,6.125-12.626,9.976c0,1.545,1.156,3.385,3.254,5.182
			c2.449,2.098,5.965,3.966,10.168,5.402c6.771,2.314,15.915,3.538,26.444,3.538c9.871,0,19.077-1.249,25.921-3.517
			c9.58-3.174,13.944-7.722,13.944-10.604c0-1.466-1.117-3.206-3.145-4.899c-2.349-1.96-5.753-3.741-9.843-5.149
			C197.382,325.414,187.837,324.022,177.846,324.022z"/>
		<path fill="#525252" d="M160.164,376.808c-1.588,0-2.988-0.343-4.162-1.02c-4.458-2.571-6.003-9.989-4.132-19.842
			c1.534-8.079,5.293-17.581,10.584-26.756c5.192-9.003,11.444-16.914,17.603-22.274c5.656-4.923,11.167-7.634,15.516-7.634
			c1.51,0,2.849,0.331,3.982,0.984c4.635,2.673,6.17,10.856,4.008,21.355c-1.533,7.442-5.2,16.435-10.325,25.321
			c-5.462,9.472-11.358,17.108-17.05,22.084C170.53,373.971,164.689,376.808,160.164,376.808z M195.572,303.006
			c-3.35,0-8.236,2.512-13.071,6.719c-5.856,5.096-11.83,12.67-16.822,21.325c-5.014,8.695-8.714,18.022-10.151,25.59
			c-1.242,6.539-1.001,13.998,2.334,15.921c0.601,0.347,1.375,0.522,2.301,0.522c3.583,0,8.657-2.565,13.572-6.862
			c5.387-4.709,11.015-12.019,16.275-21.14c4.931-8.551,8.448-17.15,9.903-24.212c0.931-4.518,1.137-8.617,0.596-11.851
			c-0.465-2.784-1.466-4.746-2.817-5.526C197.134,303.17,196.421,303.006,195.572,303.006z"/>
		<path fill="#525252" d="M195.542,376.841c-4.287,0-9.677-2.607-15.179-7.341c-6.233-5.364-12.588-13.366-17.895-22.532
			c-5.207-8.995-8.938-18.362-10.506-26.375c-0.917-4.685-1.087-8.989-0.491-12.446c0.648-3.765,2.194-6.45,4.468-7.767
			c1.162-0.673,2.541-1.014,4.1-1.014c4.55,0,10.529,2.991,16.403,8.207c5.682,5.045,11.642,12.713,16.781,21.591
			c5.478,9.463,9.15,18.384,10.618,25.801c0.953,4.815,1.101,9.279,0.427,12.908c-0.716,3.858-2.324,6.609-4.65,7.956
			C198.458,376.5,197.087,376.841,195.542,376.841z M160.039,303.091c-0.895,0-1.646,0.173-2.234,0.513
			c-1.269,0.735-2.215,2.573-2.664,5.176c-0.519,3.015-0.355,6.853,0.476,11.098c1.491,7.619,5.069,16.577,10.074,25.224
			c5.029,8.687,11.262,16.55,17.101,21.575c6.755,5.812,11.166,6.44,12.749,6.44c0.881,0,1.625-0.172,2.21-0.511
			c2.5-1.447,4.328-7.358,2.435-16.918c-1.389-7.019-4.912-15.546-10.187-24.658c-4.946-8.543-10.639-15.884-16.031-20.672
			C168.844,305.807,163.636,303.091,160.039,303.091z"/>
	</g>
</g>
<g id="boxes">
	<g>
		<path fill="#525252" d="M229.392,175.991c-0.44,0-0.858,0.08-1.237,0.235l-0.556,0.281l-41.831,21.696l-0.948,0.487
			c0,0-0.013,0.006-0.013,0.011c-1.844,1.139-3.058,3.051-3.058,5.227v45.339c0,1.557,1.378,2.816,3.096,2.816
			c0.531,0,1.037-0.125,1.48-0.342c0.038-0.023,0.089-0.046,0.127-0.069l42.626-22.613l0.063-0.034
			c2.01-1.099,3.351-3.108,3.351-5.393v-44.836C232.49,177.245,231.1,175.991,229.392,175.991z"/>
		<path fill="#525252" d="M226.214,163.9l-44.326-19.938c0,0-2.6-1.169-4.044-1.169s-4.032,1.169-4.032,1.169L129.45,163.9
			c0,0-1.949,0.803-1.949,2.312c0,1.601,2.025,2.805,2.025,2.805l44.541,23.51l0.708,0.361c0.923,0.412,1.97,0.646,3.071,0.646
			c1.113,0,2.175-0.235,3.108-0.658l0.619-0.321l44.617-23.55c0,0,1.832-0.985,1.832-2.794
			C228.021,164.627,226.214,163.9,226.214,163.9z"/>
		<path fill="#525252" d="M170.885,198.701l-0.974-0.498l-41.821-21.696l-0.556-0.281c-0.365-0.155-0.795-0.235-1.237-0.235
			c-1.707,0-3.096,1.253-3.096,2.805v44.836c0,2.29,1.338,4.294,3.349,5.393l0.051,0.034l42.627,22.613l0,0
			c0.468,0.263,1.024,0.412,1.619,0.412c1.705,0,3.096-1.259,3.096-2.816v-45.339C173.942,201.752,172.729,199.84,170.885,198.701z"
			/>
	</g>
</g>
<g id="ansible">
	<g>
		<polygon fill="#525252" points="38.434,114.415 54.863,127.357 43.986,100.512 		"/>
		<path fill="#525252" d="M43.278,74.835c-23.212,0-42.031,18.819-42.031,42.031c0,23.215,18.819,42.031,42.031,42.031
			c23.215,0,42.032-18.817,42.032-42.031C85.311,93.655,66.493,74.835,43.278,74.835z M60.524,137.782
			c-0.819,0-1.448-0.318-2.321-1.024L36.51,118.511L29.241,136h-6.282l18.364-43.444c0.477-1.161,1.502-1.415,2.663-1.415
			c1.159,0,2.115,0.795,2.592,1.956l16.731,40.355c0.184,0.492,0.286,0.996,0.286,1.284
			C63.595,136.509,62.163,137.782,60.524,137.782z"/>
	</g>
</g>
<g id="aws">
	<g>
		<g>
			<polygon fill="#525252" points="122.217,54.94 114.016,51.999 114.016,39.979 122.217,42.773 			"/>
			<polygon fill="#525252" points="123.721,54.94 131.921,51.999 131.921,39.979 123.721,42.773 			"/>
			<polygon fill="#525252" points="114.859,39.08 123.159,36.744 130.854,39.225 123.159,41.838 			"/>
		</g>
		<g>
			<polygon fill="#525252" points="112.454,38.149 104.253,35.207 104.253,23.187 112.454,25.981 			"/>
			<polygon fill="#525252" points="113.958,38.149 122.159,35.207 122.159,23.187 113.958,25.981 			"/>
			<polygon fill="#525252" points="105.096,22.287 113.396,19.951 121.092,22.433 113.396,25.045 			"/>
		</g>
		<g>
			<polygon fill="#525252" points="131.589,38.149 123.388,35.207 123.388,23.187 131.589,25.981 			"/>
			<polygon fill="#525252" points="133.093,38.149 141.294,35.207 141.294,23.187 133.093,25.981 			"/>
			<polygon fill="#525252" points="124.231,22.287 132.531,19.951 140.226,22.433 132.531,25.045 			"/>
		</g>
		<g>
			<polygon fill="#525252" points="141.352,21.356 133.151,18.415 133.151,6.395 141.352,9.189 			"/>
			<polygon fill="#525252" points="142.856,21.356 151.057,18.415 151.057,6.395 142.856,9.189 			"/>
			<polygon fill="#525252" points="133.994,5.495 142.294,3.159 149.99,5.641 142.294,8.253 			"/>
		</g>
		<g>
			<polygon fill="#525252" points="160.487,21.356 152.286,18.415 152.286,6.395 160.487,9.189 			"/>
			<polygon fill="#525252" points="161.991,21.356 170.192,18.415 170.192,6.395 161.991,9.189 			"/>
			<polygon fill="#525252" points="153.129,5.495 161.429,3.159 169.124,5.641 161.429,8.253 			"/>
		</g>
		<g>
			<path fill="#525252" d="M156.316,47.111l-2.755,9.57h-1.198l-2.145-7.108l-1.967,7.108h-1.22l-2.863-9.57h1.481l2.085,7.131
				l1.985-7.131h1.092l2.158,7.154l2.144-7.154H156.316z"/>
			<path fill="#525252" d="M163.936,53.826l1.387,0.284c-0.252,0.818-0.744,1.496-1.475,2.032c-0.732,0.536-1.592,0.804-2.583,0.804
				c-1.305,0-2.361-0.46-3.169-1.38c-0.807-0.92-1.211-2.126-1.211-3.618c0-1.524,0.419-2.755,1.258-3.694
				c0.839-0.939,1.892-1.409,3.16-1.409c1.249,0,2.253,0.432,3.013,1.297s1.149,2.158,1.168,3.881h-6.946
				c0,1.448,0.302,2.423,0.908,2.929c0.605,0.506,1.245,0.758,1.918,0.758C162.581,55.71,163.438,55.081,163.936,53.826z
				 M163.855,50.913c-0.013-0.536-0.101-1.013-0.265-1.43s-0.441-0.772-0.832-1.066c-0.391-0.293-0.86-0.44-1.409-0.44
				c-0.737,0-1.363,0.265-1.877,0.796c-0.514,0.53-0.802,1.243-0.865,2.14C158.607,50.913,163.855,50.913,163.855,50.913z"/>
			<path fill="#525252" d="M168.16,56.68h-0.717V43.759h1.491v4.947c0.681-1.241,1.619-1.861,2.816-1.861
				c1.096,0,2.014,0.433,2.754,1.3c0.74,0.866,1.11,2.125,1.11,3.774c0,1.423-0.364,2.616-1.092,3.58
				c-0.729,0.965-1.676,1.447-2.843,1.447c-1.299,0-2.295-0.617-2.988-1.849L168.16,56.68z M168.934,52.928
				c0.069,0.983,0.371,1.695,0.904,2.139c0.533,0.443,1.096,0.665,1.689,0.665c0.757,0,1.367-0.329,1.831-0.986
				c0.464-0.657,0.696-1.558,0.696-2.702c0-1.232-0.224-2.201-0.672-2.906c-0.448-0.704-1.07-1.057-1.864-1.057
				c-0.625,0-1.188,0.251-1.69,0.752c-0.502,0.502-0.8,1.15-0.894,1.945V52.928z"/>
			<path fill="#525252" d="M179.414,54.2l1.421-0.294c0.316,1.202,1.314,1.803,2.995,1.803c0.619,0,1.143-0.138,1.573-0.416
				c0.43-0.277,0.645-0.668,0.645-1.172c0-0.749-0.547-1.225-1.641-1.427l-2.016-0.383c-0.79-0.152-1.417-0.449-1.885-0.891
				c-0.467-0.442-0.7-1.026-0.7-1.753c0-0.802,0.319-1.473,0.956-2.013s1.495-0.81,2.575-0.81c2.076,0,3.358,0.811,3.843,2.434
				l-1.364,0.293c-0.391-0.994-1.195-1.491-2.412-1.491c-0.606,0-1.103,0.124-1.491,0.373c-0.388,0.248-0.582,0.595-0.582,1.042
				c0,0.703,0.496,1.146,1.487,1.329l1.863,0.343c1.951,0.354,2.926,1.3,2.926,2.837c0,0.879-0.363,1.59-1.09,2.13
				c-0.726,0.541-1.692,0.812-2.899,0.812C181.352,56.946,179.95,56.031,179.414,54.2z"/>
			<path fill="#525252" d="M195.537,53.826l1.387,0.284c-0.252,0.818-0.744,1.496-1.476,2.032c-0.731,0.536-1.592,0.804-2.582,0.804
				c-1.306,0-2.362-0.46-3.169-1.38c-0.807-0.92-1.211-2.126-1.211-3.618c0-1.524,0.419-2.755,1.259-3.694
				c0.839-0.939,1.892-1.409,3.16-1.409c1.248,0,2.253,0.432,3.012,1.297c0.76,0.865,1.15,2.158,1.168,3.881h-6.946
				c0,1.448,0.303,2.423,0.907,2.929c0.606,0.506,1.245,0.758,1.919,0.758C194.182,55.71,195.039,55.081,195.537,53.826z
				 M195.456,50.913c-0.013-0.536-0.101-1.013-0.265-1.43s-0.441-0.772-0.832-1.066c-0.391-0.293-0.861-0.44-1.409-0.44
				c-0.737,0-1.363,0.265-1.877,0.796c-0.514,0.53-0.802,1.243-0.865,2.14C190.208,50.913,195.456,50.913,195.456,50.913z"/>
			<path fill="#525252" d="M200.179,56.68h-1.491v-9.57h1.306v2.231c0.46-1.045,0.923-1.722,1.386-2.032
				c0.464-0.31,0.938-0.465,1.425-0.465c0.151,0,0.347,0.011,0.587,0.035V48.3h-0.302c-0.819,0-1.5,0.305-2.042,0.913
				c-0.542,0.609-0.832,1.408-0.869,2.4V56.68z"/>
			<path fill="#525252" d="M212.652,47.111l-3.304,9.57h-1.545l-3.414-9.57h1.649l2.656,7.778l2.636-7.778H212.652z"/>
			<path fill="#525252" d="M215.439,43.759v1.653h-1.595v-1.653H215.439z M215.404,47.111v9.57h-1.491v-9.57H215.404z"/>
			<path fill="#525252" d="M223.193,53.329l1.341,0.236c-0.189,1.058-0.609,1.885-1.259,2.484c-0.65,0.598-1.461,0.898-2.433,0.898
				c-1.319,0-2.324-0.487-3.015-1.461s-1.037-2.162-1.037-3.567c0-1.454,0.365-2.663,1.094-3.628
				c0.728-0.965,1.721-1.446,2.977-1.446c1.042,0,1.876,0.311,2.504,0.935c0.628,0.623,1.017,1.428,1.169,2.415l-1.341,0.256
				c-0.252-1.579-1.015-2.369-2.289-2.369c-0.82,0-1.45,0.349-1.891,1.046c-0.442,0.698-0.662,1.601-0.662,2.712
				c0,1.224,0.219,2.175,0.658,2.853c0.438,0.678,1.054,1.017,1.849,1.017C222.086,55.71,222.865,54.916,223.193,53.329z"/>
			<path fill="#525252" d="M232.941,53.826l1.387,0.284c-0.252,0.818-0.744,1.496-1.476,2.032c-0.731,0.536-1.592,0.804-2.582,0.804
				c-1.306,0-2.362-0.46-3.169-1.38c-0.807-0.92-1.211-2.126-1.211-3.618c0-1.524,0.419-2.755,1.259-3.694
				c0.839-0.939,1.892-1.409,3.16-1.409c1.248,0,2.253,0.432,3.013,1.297s1.149,2.158,1.168,3.881h-6.946
				c0,1.448,0.302,2.423,0.907,2.929c0.606,0.506,1.244,0.758,1.919,0.758C231.586,55.71,232.443,55.081,232.941,53.826z
				 M232.86,50.913c-0.013-0.536-0.101-1.013-0.265-1.43s-0.441-0.772-0.832-1.066c-0.391-0.293-0.861-0.44-1.409-0.44
				c-0.738,0-1.363,0.265-1.877,0.796c-0.514,0.53-0.802,1.243-0.865,2.14C227.612,50.913,232.86,50.913,232.86,50.913z"/>
			<path fill="#525252" d="M235.332,54.2l1.422-0.294c0.316,1.202,1.314,1.803,2.995,1.803c0.619,0,1.143-0.138,1.573-0.416
				c0.43-0.277,0.645-0.668,0.645-1.172c0-0.749-0.547-1.225-1.641-1.427l-2.016-0.383c-0.79-0.152-1.417-0.449-1.885-0.891
				c-0.467-0.442-0.7-1.026-0.7-1.753c0-0.802,0.318-1.473,0.956-2.013c0.637-0.54,1.495-0.81,2.575-0.81
				c2.076,0,3.357,0.811,3.843,2.434l-1.364,0.293c-0.391-0.994-1.195-1.491-2.412-1.491c-0.606,0-1.102,0.124-1.49,0.373
				c-0.388,0.248-0.582,0.595-0.582,1.042c0,0.703,0.496,1.146,1.487,1.329l1.863,0.343c1.95,0.354,2.926,1.3,2.926,2.837
				c0,0.879-0.363,1.59-1.09,2.13c-0.726,0.541-1.693,0.812-2.899,0.812C237.27,56.946,235.868,56.031,235.332,54.2z"/>
		</g>
		<g>
			<g>
				<path fill="#525252" d="M201.727,26.658v-2.299c0.001-0.35,0.265-0.583,0.583-0.582l10.303-0.001c0.33,0,0.594,0.24,0.594,0.581
					l-0.001,1.971c-0.002,0.331-0.281,0.762-0.776,1.447l-5.337,7.62c1.981-0.047,4.077,0.25,5.876,1.262
					c0.406,0.228,0.515,0.566,0.546,0.897v2.453c0,0.338-0.37,0.729-0.758,0.526c-3.171-1.661-7.38-1.843-10.886,0.02
					c-0.358,0.191-0.733-0.194-0.733-0.533v-2.332c0-0.373,0.007-1.011,0.383-1.58l6.183-8.87l-5.383-0.001
					C201.993,27.236,201.729,27.002,201.727,26.658z"/>
				<path fill="#525252" d="M164.856,41.015h-3.134c-0.298-0.019-0.537-0.244-0.561-0.53l0.002-16.087
					c0-0.322,0.271-0.579,0.605-0.579l2.919-0.001c0.306,0.016,0.551,0.247,0.57,0.54v2.1h0.059
					c0.761-2.031,2.194-2.979,4.125-2.979c1.96,0,3.189,0.948,4.067,2.979c0.76-2.031,2.487-2.979,4.33-2.979
					c1.317,0,2.75,0.542,3.628,1.76c0.995,1.354,0.79,3.318,0.79,5.044l-0.002,10.152c0,0.322-0.271,0.579-0.604,0.579h-3.131
					c-0.315-0.02-0.563-0.269-0.563-0.578l-0.001-8.528c0-0.677,0.059-2.37-0.088-3.013c-0.234-1.083-0.936-1.388-1.843-1.388
					c-0.761,0-1.551,0.508-1.873,1.32s-0.292,2.166-0.292,3.081v8.527c0,0.322-0.271,0.579-0.604,0.579h-3.131
					c-0.315-0.02-0.563-0.269-0.563-0.578l-0.003-8.528c0-1.794,0.293-4.435-1.931-4.435c-2.253,0-2.165,2.573-2.165,4.435
					l-0.001,8.527C165.461,40.757,165.19,41.015,164.856,41.015z"/>
				<path fill="#525252" d="M220.775,23.48c4.615,0,7.111,3.995,7.111,9.072c0,4.908-2.757,8.802-7.111,8.802
					c-4.528,0-6.995-3.995-6.995-8.971C213.78,27.373,216.277,23.48,220.775,23.48z M220.805,27.177
					c-2.294,0-2.438,3.148-2.438,5.112c0,1.963-0.029,5.747,2.409,5.747c2.41,0,2.525-2.971,2.525-5.036
					c0-1.354-0.058-2.979-0.464-4.265C222.487,27.618,221.791,27.177,220.805,27.177z"/>
				<path fill="#525252" d="M234.566,41.015h-3.123c-0.314-0.02-0.562-0.269-0.562-0.578l-0.005-16.093
					c0.026-0.294,0.286-0.525,0.602-0.525l2.908-0.001c0.274,0.014,0.499,0.201,0.557,0.451v2.461h0.059
					c0.878-2.2,2.106-3.25,4.271-3.25c1.404,0,2.78,0.508,3.657,1.896c0.819,1.286,0.819,3.453,0.819,5.01v10.122
					c-0.035,0.285-0.291,0.507-0.601,0.507h-3.142c-0.29-0.019-0.524-0.232-0.558-0.507v-8.735c0-1.76,0.205-4.333-1.96-4.333
					c-0.761,0-1.463,0.508-1.814,1.286c-0.439,0.982-0.498,1.963-0.498,3.047v8.662C235.171,40.757,234.9,41.015,234.566,41.015z"/>
				<path fill="#525252" d="M199.452,38.067c-0.573-0.792-1.183-1.436-1.183-2.905v-4.883c0-2.069,0.147-3.969-1.378-5.394
					c-1.202-1.154-3.196-1.561-4.721-1.561c-2.982,0-6.311,1.113-7.009,4.799c-0.074,0.391,0.211,0.597,0.468,0.655l3.038,0.329
					c0.284-0.014,0.49-0.294,0.544-0.576c0.261-1.269,1.324-1.882,2.519-1.882c0.645,0,1.378,0.237,1.759,0.814
					c0.44,0.644,0.381,1.527,0.381,2.273v0.407c-1.818,0.204-4.193,0.34-5.894,1.086c-1.965,0.848-3.343,2.579-3.343,5.123
					c0,3.257,2.052,4.885,4.691,4.885c2.229,0,3.447-0.525,5.168-2.278c0.569,0.824,0.755,1.224,1.796,2.089
					c0.234,0.126,0.533,0.113,0.741-0.073l0.009,0.006c0.626-0.557,1.764-1.545,2.404-2.082
					C199.697,38.691,199.652,38.352,199.452,38.067z M193.284,36.658c-0.499,0.882-1.29,1.425-2.17,1.425
					c-1.202,0-1.906-0.916-1.906-2.273c0-2.67,2.395-3.155,4.662-3.155v0.678C193.87,34.554,193.899,35.572,193.284,36.658z"/>
				<path fill="#525252" d="M158.717,38.067c-0.573-0.792-1.183-1.436-1.183-2.905v-4.883c0-2.069,0.147-3.969-1.378-5.394
					c-1.202-1.154-3.196-1.561-4.721-1.561c-2.983,0-6.311,1.113-7.009,4.799c-0.074,0.391,0.211,0.597,0.468,0.655l3.038,0.329
					c0.285-0.014,0.49-0.294,0.545-0.576c0.26-1.269,1.324-1.882,2.519-1.882c0.644,0,1.378,0.237,1.759,0.814
					c0.44,0.644,0.381,1.527,0.381,2.273v0.407c-1.817,0.204-4.192,0.34-5.893,1.086c-1.965,0.848-3.343,2.579-3.343,5.123
					c0,3.257,2.052,4.885,4.691,4.885c2.228,0,3.447-0.525,5.167-2.278c0.569,0.824,0.756,1.224,1.797,2.089
					c0.234,0.126,0.533,0.113,0.741-0.073l0.007,0.006c0.626-0.557,1.764-1.545,2.404-2.082
					C158.962,38.691,158.917,38.352,158.717,38.067z M152.55,36.658c-0.498,0.882-1.29,1.425-2.17,1.425
					c-1.202,0-1.906-0.916-1.906-2.273c0-2.67,2.395-3.155,4.662-3.155v0.678C153.136,34.554,153.166,35.572,152.55,36.658z"/>
			</g>
		</g>
	</g>
</g>
<g id="nodejs">
	<g transform="translate(96 96)">
		<g id="icon-nodejs_small">
			<path fill="#525252" d="M201.003,62.45c-1.134,0-2.267-0.307-3.269-0.904l-10.413-6.375c-1.555-0.897-0.791-1.219-0.284-1.403
				c2.076-0.743,2.695-1.112,4.903-2.414c0.237-0.131,0.54-0.083,0.777,0.063l7.804,4.619c0.29,0.167,0.699,0.167,0.969,0
				l30.499-18.129c0.29-0.172,0.475-0.52,0.475-0.873V0.32c0-0.364-0.185-0.706-0.481-0.89l-30.486-18.606
				c-0.29-0.176-0.672-0.176-0.963,0L170.069-0.563c-0.303,0.177-0.494,0.53-0.494,0.883v36.713c0,0.356,0.191,0.69,0.488,0.863
				l7.847,4.711c4.64,2.398,7.388-0.033,7.388-2.872V3.633c0-0.521,0.402-0.929,0.903-0.929h4.483c0.494,0,0.903,0.407,0.903,0.929
				v36.102c0,6.4-3.803,10.072-9.669,10.072c-1.799,0-3.223,0-7.184-2.02l-8.173-4.87c-2.023-1.209-3.276-3.468-3.276-5.887V-0.206
				c0-2.42,1.252-4.674,3.275-5.88l31.187-18.644c1.971-1.156,4.594-1.156,6.551,0l31.18,18.644c2.024,1.208,3.276,3.464,3.276,5.88
				V37.03c0,2.419-1.252,4.668-3.276,5.887l-31.18,18.626c-1.002,0.597-2.129,0.904-3.282,0.904L201.003,62.45z"/>
			<path fill="#525252" d="M210.638,37.293c-12.698,0-16.51-6.212-16.51-11.649c0-0.517,0.402-0.929,0.897-0.929h4.033
				c0.448,0,0.831,0.334,0.897,0.789c0.606,4.245,3.292,6.122,10.676,6.122c6.564,0,9.255-2.033,9.255-5.637
				c0-2.082-0.681-3.621-10.889-4.657c-8.535-0.873-13.814-2.825-13.814-9.885c0-6.512,5.306-10.316,14.196-10.316
				c9.066,0,15.027,2.751,15.56,9.989c0.02,0.263-0.072,0.517-0.244,0.716c-0.171,0.19-0.408,0.3-0.659,0.3h-4.047
				c-0.422,0-0.791-0.307-0.876-0.73c-0.865-3.332-3.335-4.599-9.741-4.599c-7.171,0-8.008,2.506-8.008,4.443
				c0,2.351,0.989,3.035,10.67,4.357c9.583,1.309,14.137,3.168,14.137,10.132c0,7.032-5.662,11.553-15.541,11.553L210.638,37.293
				L210.638,37.293z"/>
		</g>
	</g>
</g>
</svg>
