<?xml version="1.0" encoding="utf-8"?>
<!-- Generator: Adobe Illustrator 17.0.0, SVG Export Plug-In . SVG Version: 6.00 Build 0)  -->
<!DOCTYPE svg PUBLIC "-//W3C//DTD SVG 1.1//EN" "http://www.w3.org/Graphics/SVG/1.1/DTD/svg11.dtd">
<svg version="1.1" id="Layer_1" xmlns="http://www.w3.org/2000/svg" xmlns:xlink="http://www.w3.org/1999/xlink" x="0px" y="0px"
	 width="206px" height="61.288px" viewBox="0 0 206 61.288" enable-background="new 0 0 206 61.288" xml:space="preserve">
<polygon fill="#525252" points="26.95,43.91 16.614,37.563 18.684,34.187 26.796,39.175 33,34.842 33,25.573 25.729,20.498 
	28.012,17.248 37,23.508 37,36.908 "/>
<path fill="#525252" d="M26,52.38L8,41.224V19.192L26,8.035l18,11.157v22.032L26,52.38z M12,39.029l14,8.678l14-8.678V21.386
	l-14-8.678l-14,8.678V39.029z"/>
<polygon fill="#525252" points="25.676,61.288 0,45.705 0,14.711 24.648,-0.248 26.723,3.138 4,16.942 4,43.474 25.695,56.654 
	48.354,42.896 50.404,46.282 "/>
<g>
	<path fill="#525252" d="M66.225,29.4h5.254v7.168c-0.859,0.28-1.685,0.479-2.476,0.596s-1.646,0.176-2.563,0.176
		c-2.161,0-3.828-0.64-5-1.919s-1.758-3.084-1.758-5.415c0-2.298,0.661-4.097,1.982-5.396s3.142-1.948,5.459-1.948
		c1.491,0,2.903,0.286,4.238,0.859l-0.82,1.943c-1.159-0.534-2.317-0.801-3.477-0.801c-1.523,0-2.728,0.479-3.613,1.436
		s-1.328,2.266-1.328,3.926c0,1.745,0.398,3.071,1.196,3.979s1.945,1.362,3.442,1.362c0.755,0,1.562-0.095,2.422-0.283v-3.682
		h-2.959V29.4z"/>
	<path fill="#525252" d="M80.141,26.148c0.462,0,0.843,0.032,1.143,0.098l-0.225,2.139c-0.325-0.078-0.664-0.117-1.016-0.117
		c-0.918,0-1.662,0.3-2.231,0.898s-0.854,1.377-0.854,2.334v5.645h-2.295V26.343h1.797l0.303,1.904h0.117
		c0.358-0.645,0.825-1.155,1.401-1.533S79.477,26.148,80.141,26.148z"/>
	<path fill="#525252" d="M88.002,37.339c-1.68,0-2.993-0.49-3.94-1.47s-1.421-2.329-1.421-4.048c0-1.765,0.439-3.151,1.318-4.16
		s2.087-1.514,3.623-1.514c1.426,0,2.552,0.433,3.379,1.299s1.24,2.058,1.24,3.574v1.24h-7.197c0.032,1.048,0.315,1.854,0.85,2.417
		s1.286,0.845,2.256,0.845c0.638,0,1.232-0.061,1.782-0.181s1.141-0.32,1.772-0.601v1.865c-0.56,0.267-1.126,0.456-1.699,0.566
		S88.737,37.339,88.002,37.339z M87.582,27.886c-0.729,0-1.313,0.231-1.753,0.693s-0.701,1.136-0.786,2.021h4.902
		c-0.013-0.892-0.228-1.567-0.645-2.026S88.312,27.886,87.582,27.886z"/>
	<path fill="#525252" d="M103.93,26.343v1.26l-1.846,0.342c0.169,0.228,0.31,0.508,0.42,0.84s0.166,0.684,0.166,1.055
		c0,1.113-0.384,1.989-1.152,2.627s-1.826,0.957-3.174,0.957c-0.345,0-0.657-0.026-0.938-0.078
		c-0.495,0.306-0.742,0.664-0.742,1.074c0,0.247,0.115,0.433,0.347,0.557s0.656,0.186,1.274,0.186h1.885
		c1.191,0,2.097,0.254,2.715,0.762s0.928,1.24,0.928,2.197c0,1.224-0.505,2.168-1.514,2.832s-2.468,0.996-4.375,0.996
		c-1.472,0-2.595-0.261-3.369-0.781s-1.162-1.263-1.162-2.227c0-0.664,0.21-1.223,0.63-1.675s1.008-0.767,1.763-0.942
		c-0.306-0.13-0.559-0.34-0.757-0.63S94.73,35.1,94.73,34.781c0-0.403,0.114-0.745,0.342-1.025s0.566-0.557,1.016-0.83
		c-0.56-0.241-1.014-0.633-1.362-1.177s-0.522-1.18-0.522-1.909c0-1.172,0.369-2.08,1.108-2.725s1.792-0.967,3.159-0.967
		c0.306,0,0.627,0.021,0.962,0.063s0.588,0.086,0.757,0.132H103.93z M95.443,38.824c0,0.495,0.223,0.876,0.669,1.143
		s1.072,0.4,1.88,0.4c1.25,0,2.181-0.179,2.793-0.537s0.918-0.833,0.918-1.426c0-0.469-0.168-0.803-0.503-1.001
		s-0.959-0.298-1.87-0.298h-1.738c-0.657,0-1.18,0.154-1.567,0.464S95.443,38.296,95.443,38.824z M96.43,29.839
		c0,0.677,0.174,1.198,0.522,1.562s0.848,0.547,1.499,0.547c1.328,0,1.992-0.71,1.992-2.129c0-0.703-0.164-1.245-0.493-1.626
		s-0.828-0.571-1.499-0.571c-0.664,0-1.167,0.188-1.509,0.566S96.43,29.117,96.43,29.839z"/>
	<path fill="#525252" d="M116.303,37.144h-2.334V24.869h-4.199v-2.002h10.732v2.002h-4.199V37.144z"/>
	<path fill="#525252" d="M129.203,37.144l-0.459-1.504h-0.078c-0.521,0.657-1.045,1.105-1.572,1.343s-1.204,0.356-2.031,0.356
		c-1.062,0-1.89-0.286-2.485-0.859s-0.894-1.384-0.894-2.432c0-1.113,0.413-1.953,1.24-2.52s2.087-0.876,3.779-0.928l1.865-0.059
		v-0.576c0-0.69-0.161-1.206-0.483-1.548s-0.822-0.513-1.499-0.513c-0.554,0-1.084,0.081-1.592,0.244s-0.996,0.354-1.465,0.576
		l-0.742-1.641c0.586-0.306,1.228-0.539,1.924-0.698s1.354-0.239,1.973-0.239c1.374,0,2.41,0.3,3.11,0.898s1.05,1.54,1.05,2.822
		v7.275H129.203z M125.785,35.582c0.833,0,1.502-0.232,2.007-0.698s0.757-1.118,0.757-1.958v-0.938l-1.387,0.059
		c-1.081,0.039-1.867,0.22-2.358,0.542s-0.737,0.815-0.737,1.479c0,0.481,0.144,0.854,0.43,1.118S125.212,35.582,125.785,35.582z"/>
	<path fill="#525252" d="M143.549,37.144h-2.305v-6.641c0-0.833-0.168-1.455-0.503-1.865s-0.867-0.615-1.597-0.615
		c-0.97,0-1.68,0.286-2.129,0.859s-0.674,1.533-0.674,2.881v5.381h-2.295V26.343h1.797l0.322,1.416h0.117
		c0.325-0.515,0.788-0.911,1.387-1.191s1.263-0.42,1.992-0.42c2.591,0,3.887,1.318,3.887,3.955V37.144z"/>
	<path fill="#525252" d="M150.385,37.339c-1.348,0-2.399-0.488-3.154-1.465s-1.133-2.347-1.133-4.111
		c0-1.771,0.383-3.149,1.147-4.136s1.824-1.479,3.179-1.479c1.419,0,2.5,0.524,3.242,1.572h0.117
		c-0.11-0.774-0.166-1.387-0.166-1.836v-3.936h2.305v15.195h-1.797l-0.4-1.416h-0.107C152.882,36.802,151.804,37.339,150.385,37.339
		z M151,35.484c0.944,0,1.631-0.266,2.061-0.796s0.651-1.392,0.664-2.583v-0.322c0-1.36-0.222-2.327-0.664-2.9
		s-1.136-0.859-2.08-0.859c-0.808,0-1.429,0.327-1.865,0.981s-0.654,1.587-0.654,2.798c0,1.198,0.212,2.111,0.635,2.739
		S150.153,35.484,151,35.484z"/>
	<path fill="#525252" d="M159.066,23.482c0-0.41,0.112-0.726,0.337-0.947s0.545-0.332,0.962-0.332c0.403,0,0.718,0.11,0.942,0.332
		s0.337,0.537,0.337,0.947c0,0.391-0.112,0.698-0.337,0.923s-0.539,0.337-0.942,0.337c-0.417,0-0.737-0.112-0.962-0.337
		S159.066,23.873,159.066,23.482z M161.498,37.144h-2.295V26.343h2.295V37.144z"/>
	<path fill="#525252" d="M174.359,31.724c0,1.765-0.452,3.142-1.357,4.131s-2.165,1.484-3.779,1.484
		c-1.009,0-1.901-0.228-2.676-0.684s-1.37-1.11-1.787-1.963s-0.625-1.843-0.625-2.969c0-1.751,0.449-3.118,1.348-4.102
		s2.165-1.475,3.799-1.475c1.562,0,2.8,0.503,3.711,1.509S174.359,30.018,174.359,31.724z M166.498,31.724
		c0,2.493,0.921,3.74,2.764,3.74c1.823,0,2.734-1.247,2.734-3.74c0-2.468-0.918-3.701-2.754-3.701c-0.964,0-1.662,0.319-2.095,0.957
		S166.498,30.533,166.498,31.724z"/>
	<path fill="#525252" d="M186.498,37.144h-2.305v-6.641c0-0.833-0.168-1.455-0.503-1.865s-0.867-0.615-1.597-0.615
		c-0.97,0-1.68,0.286-2.129,0.859s-0.674,1.533-0.674,2.881v5.381h-2.295V26.343h1.797l0.322,1.416h0.117
		c0.325-0.515,0.788-0.911,1.387-1.191s1.263-0.42,1.992-0.42c2.591,0,3.887,1.318,3.887,3.955V37.144z"/>
	<path fill="#525252" d="M199.271,31.724c0,1.765-0.452,3.142-1.357,4.131s-2.165,1.484-3.779,1.484
		c-1.009,0-1.901-0.228-2.676-0.684s-1.37-1.11-1.787-1.963s-0.625-1.843-0.625-2.969c0-1.751,0.449-3.118,1.348-4.102
		s2.165-1.475,3.799-1.475c1.562,0,2.8,0.503,3.711,1.509S199.271,30.018,199.271,31.724z M191.41,31.724
		c0,2.493,0.921,3.74,2.764,3.74c1.823,0,2.734-1.247,2.734-3.74c0-2.468-0.918-3.701-2.754-3.701c-0.964,0-1.662,0.319-2.095,0.957
		S191.41,30.533,191.41,31.724z"/>
	<path fill="#525252" d="M201.566,35.923c0-0.476,0.124-0.84,0.371-1.094s0.605-0.381,1.074-0.381c0.476,0,0.837,0.132,1.084,0.396
		s0.371,0.623,0.371,1.079c0,0.462-0.125,0.828-0.376,1.099s-0.61,0.405-1.079,0.405s-0.827-0.134-1.074-0.4
		S201.566,36.392,201.566,35.923z"/>
</g>
</svg>
